<svg width="142" height="51" viewBox="0 0 142 51" fill="none" xmlns="http://www.w3.org/2000/svg">
<path d="M67.1561 23.9455C65.3823 23.9455 64.0409 23.4467 63.1319 22.4489C62.2228 21.429 61.7683 19.9768 61.7683 18.0922V16.7619H65.2271V18.3582C65.2271 19.8659 65.859 20.6198 67.1228 20.6198C67.7436 20.6198 68.2092 20.4424 68.5196 20.0876C68.8522 19.7107 69.0185 19.1121 69.0185 18.2917C69.0185 17.3162 68.7968 16.4625 68.3533 15.7309C67.9099 14.977 67.0895 14.0791 65.8923 13.037C64.3846 11.7067 63.3314 10.5094 62.7328 9.44518C62.1341 8.35876 61.8348 7.13931 61.8348 5.78684C61.8348 3.94658 62.3004 2.52758 63.2316 1.52985C64.1629 0.509951 65.5153 0 67.2891 0C69.0407 0 70.3599 0.509951 71.2467 1.52985C72.1558 2.52758 72.6103 3.96875 72.6103 5.85335V6.81782H69.1515V5.62055C69.1515 4.82236 68.9963 4.2459 68.6859 3.89115C68.3755 3.51423 67.921 3.32577 67.3223 3.32577C66.1029 3.32577 65.4932 4.06852 65.4932 5.55403C65.4932 6.39656 65.7149 7.18366 66.1583 7.91533C66.6239 8.647 67.4554 9.53387 68.6526 10.5759C70.1825 11.9062 71.2357 13.1146 71.8121 14.201C72.3886 15.2874 72.6768 16.5623 72.6768 18.0257C72.6768 19.9324 72.2001 21.3958 71.2467 22.4157C70.3155 23.4356 68.952 23.9455 67.1561 23.9455Z" fill="white"/>
<path d="M74.7744 0.332576H78.4327V23.6129H74.7744V0.332576Z" fill="white"/>
<path d="M84.3986 11.7067L80.3744 0.332576H84.2323L86.6934 7.84881H86.7599L89.2875 0.332576H92.7463L88.7221 11.7067L92.9458 23.6129H89.0879L86.4273 15.4981H86.3608L83.6337 23.6129H80.1749L84.3986 11.7067Z" fill="white"/>
<path d="M94.6835 0.332576H100.071C101.889 0.332576 103.253 0.820356 104.162 1.79591C105.071 2.77147 105.526 4.20155 105.526 6.08615V8.38093C105.526 10.2655 105.071 11.6956 104.162 12.6712C103.253 13.6467 101.889 14.1345 100.071 14.1345H98.3419V23.6129H94.6835V0.332576ZM100.071 10.8087C100.67 10.8087 101.113 10.6425 101.402 10.3099C101.712 9.9773 101.867 9.41192 101.867 8.61374V5.85335C101.867 5.05517 101.712 4.48979 101.402 4.15721C101.113 3.82463 100.67 3.65834 100.071 3.65834H98.3419V10.8087H100.071Z" fill="white"/>
<path d="M109.17 0.332576H114.125L117.917 23.6129H114.259L113.593 18.9901V19.0566H109.436L108.771 23.6129H105.379L109.17 0.332576ZM113.161 15.8972L111.531 4.39001H111.465L109.869 15.8972H113.161Z" fill="white"/>
<path d="M121.025 3.65834H117.201V0.332576H128.508V3.65834H124.684V23.6129H121.025V3.65834Z" fill="white"/>
<path d="M130.28 0.332576H133.938V9.81101H137.862V0.332576H141.521V23.6129H137.862V13.1368H133.938V23.6129H130.28V0.332576Z" fill="white"/>
<path d="M67.1561 50.54C65.3823 50.54 64.0409 50.0412 63.1319 49.0434C62.2228 48.0235 61.7683 46.5713 61.7683 44.6867V43.3564H65.2271V44.9527C65.2271 46.4604 65.859 47.2143 67.1228 47.2143C67.7436 47.2143 68.2092 47.0369 68.5196 46.6821C68.8522 46.3052 69.0185 45.7066 69.0185 44.8862C69.0185 43.9107 68.7968 43.0571 68.3533 42.3254C67.9099 41.5716 67.0895 40.6736 65.8923 39.6315C64.3846 38.3012 63.3314 37.1039 62.7328 36.0397C62.1341 34.9533 61.8348 33.7338 61.8348 32.3813C61.8348 30.5411 62.3004 29.1221 63.2316 28.1244C64.1629 27.1045 65.5153 26.5945 67.2891 26.5945C69.0407 26.5945 70.3599 27.1045 71.2467 28.1244C72.1558 29.1221 72.6103 30.5633 72.6103 32.4479V33.4123H69.1515V32.2151C69.1515 31.4169 68.9963 30.8404 68.6859 30.4857C68.3755 30.1087 67.921 29.9203 67.3223 29.9203C66.1029 29.9203 65.4932 30.663 65.4932 32.1485C65.4932 32.9911 65.7149 33.7782 66.1583 34.5098C66.6239 35.2415 67.4554 36.1284 68.6526 37.1705C70.1825 38.5008 71.2357 39.7091 71.8121 40.7955C72.3886 41.882 72.6768 43.1568 72.6768 44.6202C72.6768 46.5269 72.2001 47.9903 71.2467 49.0102C70.3155 50.0301 68.952 50.54 67.1561 50.54Z" fill="white"/>
<path d="M77.6346 30.2529H73.8099V26.9271H85.1175V30.2529H81.2929V50.2075H77.6346V30.2529Z" fill="white"/>
<path d="M92.21 50.54C90.4363 50.54 89.0838 50.0412 88.1526 49.0434C87.2213 48.0235 86.7557 46.5713 86.7557 44.6867V26.9271H90.4141V44.9527C90.4141 45.7509 90.5693 46.3274 90.8797 46.6821C91.2123 47.0369 91.6779 47.2143 92.2765 47.2143C92.8751 47.2143 93.3297 47.0369 93.6401 46.6821C93.9726 46.3274 94.1389 45.7509 94.1389 44.9527V26.9271H97.6643V44.6867C97.6643 46.5713 97.1986 48.0235 96.2674 49.0434C95.3362 50.0412 93.9837 50.54 92.21 50.54Z" fill="white"/>
<path d="M100.27 26.9271H105.857C107.675 26.9271 109.039 27.4149 109.948 28.3904C110.857 29.366 111.311 30.7961 111.311 32.6807V44.4539C111.311 46.3385 110.857 47.7686 109.948 48.7441C109.039 49.7197 107.675 50.2075 105.857 50.2075H100.27V26.9271ZM105.791 46.8817C106.389 46.8817 106.844 46.7043 107.154 46.3496C107.487 45.9948 107.653 45.4184 107.653 44.6202V32.5144C107.653 31.7162 107.487 31.1397 107.154 30.785C106.844 30.4302 106.389 30.2529 105.791 30.2529H103.928V46.8817H105.791Z" fill="white"/>
<path d="M113.781 26.9271H117.439V50.2075H113.781V26.9271Z" fill="white"/>
<path d="M125.467 50.54C123.671 50.54 122.296 50.0301 121.343 49.0102C120.39 47.9903 119.913 46.5491 119.913 44.6867V32.4479C119.913 30.5854 120.39 29.1443 121.343 28.1244C122.296 27.1045 123.671 26.5945 125.467 26.5945C127.263 26.5945 128.637 27.1045 129.591 28.1244C130.544 29.1443 131.021 30.5854 131.021 32.4479V44.6867C131.021 46.5491 130.544 47.9903 129.591 49.0102C128.637 50.0301 127.263 50.54 125.467 50.54ZM125.467 47.2143C126.731 47.2143 127.363 46.4493 127.363 44.9195V32.2151C127.363 30.6852 126.731 29.9203 125.467 29.9203C124.203 29.9203 123.571 30.6852 123.571 32.2151V44.9195C123.571 46.4493 124.203 47.2143 125.467 47.2143Z" fill="white"/>
<path d="M40.2555 0.817934C39.7029 0.667515 39.1261 0.588562 38.5381 0.588562H17.2058C14.8694 0.588562 12.7105 1.83501 11.5423 3.85838L0.876146 22.3327C-0.292048 24.3561 -0.292049 26.849 0.876144 28.8723L11.5423 47.3467C11.8363 47.8559 12.1931 48.3159 12.5996 48.7193L16.5626 41.8551L7.93434 26.9105C7.46706 26.1011 7.46706 25.104 7.93434 24.2946L16.7705 8.99001C17.2377 8.18066 18.1013 7.68208 19.0359 7.68208H36.2925L40.2555 0.817934Z" fill="white"/>
<path d="M18.8258 43.5146C18.8953 43.5202 18.9654 43.523 19.0359 43.523H36.7081C37.6426 43.523 38.5062 43.0244 38.9735 42.2151L47.8096 26.9105C48.2769 26.1011 48.2769 25.104 47.8096 24.2946L38.9735 8.99001C38.9382 8.92898 38.9008 8.86972 38.8612 8.81231L42.731 2.10948C43.3114 2.59426 43.8117 3.18305 44.2016 3.85838L54.8678 22.3327C56.036 24.3561 56.036 26.849 54.8678 28.8723L44.2016 47.3467C43.0334 49.3701 40.8745 50.6165 38.5381 50.6165H17.2058C16.426 50.6165 15.6659 50.4776 14.9559 50.2174L18.8258 43.5146Z" fill="white"/>
</svg>
