<svg width="375" height="812" viewBox="0 0 375 812" fill="none" xmlns="http://www.w3.org/2000/svg">
<g clip-path="url(#clip0_9_356)">
<rect width="375" height="812" fill="#0D0B0B"/>
<path d="M184.156 404.946C182.382 404.946 181.041 404.447 180.132 403.449C179.223 402.429 178.768 400.977 178.768 399.092V397.762H182.227V399.358C182.227 400.866 182.859 401.62 184.123 401.62C184.744 401.62 185.209 401.442 185.52 401.088C185.852 400.711 186.018 400.112 186.018 399.292C186.018 398.316 185.797 397.463 185.353 396.731C184.91 395.977 184.09 395.079 182.892 394.037C181.385 392.707 180.331 391.509 179.733 390.445C179.134 389.359 178.835 388.139 178.835 386.787C178.835 384.947 179.3 383.528 180.232 382.53C181.163 381.51 182.515 381 184.289 381C186.041 381 187.36 381.51 188.247 382.53C189.156 383.528 189.61 384.969 189.61 386.853V387.818H186.152V386.621C186.152 385.822 185.996 385.246 185.686 384.891C185.376 384.514 184.921 384.326 184.322 384.326C183.103 384.326 182.493 385.069 182.493 386.554C182.493 387.397 182.715 388.184 183.158 388.915C183.624 389.647 184.455 390.534 185.653 391.576C187.183 392.906 188.236 394.115 188.812 395.201C189.389 396.287 189.677 397.562 189.677 399.026C189.677 400.932 189.2 402.396 188.247 403.416C187.316 404.436 185.952 404.946 184.156 404.946Z" fill="white"/>
<path d="M191.774 381.333H195.433V404.613H191.774V381.333Z" fill="white"/>
<path d="M201.399 392.707L197.374 381.333H201.232L203.693 388.849H203.76L206.287 381.333H209.746L205.722 392.707L209.946 404.613H206.088L203.427 396.498H203.361L200.634 404.613H197.175L201.399 392.707Z" fill="white"/>
<path d="M211.684 381.333H217.071C218.889 381.333 220.253 381.82 221.162 382.796C222.071 383.771 222.526 385.202 222.526 387.086V389.381C222.526 391.266 222.071 392.696 221.162 393.671C220.253 394.647 218.889 395.135 217.071 395.135H215.342V404.613H211.684V381.333ZM217.071 391.809C217.67 391.809 218.113 391.642 218.402 391.31C218.712 390.977 218.867 390.412 218.867 389.614V386.853C218.867 386.055 218.712 385.49 218.402 385.157C218.113 384.825 217.67 384.658 217.071 384.658H215.342V391.809H217.071Z" fill="white"/>
<path d="M226.17 381.333H231.125L234.917 404.613H231.259L230.593 399.99V400.057H226.436L225.771 404.613H222.379L226.17 381.333ZM230.161 396.897L228.531 385.39H228.465L226.869 396.897H230.161Z" fill="white"/>
<path d="M238.025 384.658H234.201V381.333H245.508V384.658H241.684V404.613H238.025V384.658Z" fill="white"/>
<path d="M247.28 381.333H250.938V390.811H254.862V381.333H258.521V404.613H254.862V394.137H250.938V404.613H247.28V381.333Z" fill="white"/>
<path d="M184.156 431.54C182.382 431.54 181.041 431.041 180.132 430.043C179.223 429.024 178.768 427.571 178.768 425.687V424.356H182.227V425.953C182.227 427.46 182.859 428.214 184.123 428.214C184.744 428.214 185.209 428.037 185.52 427.682C185.852 427.305 186.018 426.707 186.018 425.886C186.018 424.911 185.797 424.057 185.353 423.325C184.91 422.572 184.09 421.674 182.892 420.632C181.385 419.301 180.331 418.104 179.733 417.04C179.134 415.953 178.835 414.734 178.835 413.381C178.835 411.541 179.3 410.122 180.232 409.124C181.163 408.104 182.515 407.595 184.289 407.595C186.041 407.595 187.36 408.104 188.247 409.124C189.156 410.122 189.61 411.563 189.61 413.448V414.412H186.152V413.215C186.152 412.417 185.996 411.84 185.686 411.486C185.376 411.109 184.921 410.92 184.322 410.92C183.103 410.92 182.493 411.663 182.493 413.149C182.493 413.991 182.715 414.778 183.158 415.51C183.624 416.242 184.455 417.128 185.653 418.17C187.183 419.501 188.236 420.709 188.812 421.796C189.389 422.882 189.677 424.157 189.677 425.62C189.677 427.527 189.2 428.99 188.247 430.01C187.316 431.03 185.952 431.54 184.156 431.54Z" fill="white"/>
<path d="M194.635 411.253H190.81V407.927H202.118V411.253H198.293V431.207H194.635V411.253Z" fill="white"/>
<path d="M209.21 431.54C207.436 431.54 206.084 431.041 205.153 430.043C204.221 429.024 203.756 427.571 203.756 425.687V407.927H207.414V425.953C207.414 426.751 207.569 427.327 207.88 427.682C208.212 428.037 208.678 428.214 209.277 428.214C209.875 428.214 210.33 428.037 210.64 427.682C210.973 427.327 211.139 426.751 211.139 425.953V407.927H214.664V425.687C214.664 427.571 214.199 429.024 213.267 430.043C212.336 431.041 210.984 431.54 209.21 431.54Z" fill="white"/>
<path d="M217.27 407.927H222.857C224.675 407.927 226.039 408.415 226.948 409.39C227.857 410.366 228.311 411.796 228.311 413.681V425.454C228.311 427.338 227.857 428.769 226.948 429.744C226.039 430.72 224.675 431.207 222.857 431.207H217.27V407.927ZM222.791 427.882C223.389 427.882 223.844 427.704 224.154 427.35C224.487 426.995 224.653 426.418 224.653 425.62V413.514C224.653 412.716 224.487 412.14 224.154 411.785C223.844 411.43 223.389 411.253 222.791 411.253H220.928V427.882H222.791Z" fill="white"/>
<path d="M230.781 407.927H234.439V431.207H230.781V407.927Z" fill="white"/>
<path d="M242.467 431.54C240.671 431.54 239.296 431.03 238.343 430.01C237.39 428.99 236.913 427.549 236.913 425.687V413.448C236.913 411.585 237.39 410.144 238.343 409.124C239.296 408.104 240.671 407.595 242.467 407.595C244.263 407.595 245.637 408.104 246.591 409.124C247.544 410.144 248.021 411.585 248.021 413.448V425.687C248.021 427.549 247.544 428.99 246.591 430.01C245.637 431.03 244.263 431.54 242.467 431.54ZM242.467 428.214C243.731 428.214 244.363 427.449 244.363 425.919V413.215C244.363 411.685 243.731 410.92 242.467 410.92C241.203 410.92 240.571 411.685 240.571 413.215V425.919C240.571 427.449 241.203 428.214 242.467 428.214Z" fill="white"/>
<path d="M157.255 381.818C156.703 381.668 156.126 381.589 155.538 381.589H134.206C131.869 381.589 129.711 382.835 128.542 384.858L117.876 403.333C116.708 405.356 116.708 407.849 117.876 409.872L128.542 428.347C128.836 428.856 129.193 429.316 129.6 429.719L133.563 422.855L124.934 407.91C124.467 407.101 124.467 406.104 124.934 405.295L133.77 389.99C134.238 389.181 135.101 388.682 136.036 388.682H153.292L157.255 381.818Z" fill="white"/>
<path d="M135.826 424.515C135.895 424.52 135.965 424.523 136.036 424.523H153.708C154.643 424.523 155.506 424.024 155.973 423.215L164.81 407.91C165.277 407.101 165.277 406.104 164.81 405.295L155.973 389.99C155.938 389.929 155.901 389.87 155.861 389.812L159.731 383.109C160.311 383.594 160.812 384.183 161.202 384.858L171.868 403.333C173.036 405.356 173.036 407.849 171.868 409.872L161.202 428.347C160.033 430.37 157.875 431.617 155.538 431.617H134.206C133.426 431.617 132.666 431.478 131.956 431.217L135.826 424.515Z" fill="white"/>
<path d="M394.833 -58.3195C404.836 -58.3195 414.08 -52.9828 419.081 -44.3195L461.596 29.318C466.598 37.9812 466.598 48.6548 461.596 57.318L419.081 130.956C414.08 139.619 404.836 144.956 394.833 144.956L309.803 144.956C299.8 144.956 290.556 139.619 285.555 130.956L243.04 57.318C238.038 48.6548 238.038 37.9812 243.04 29.318L285.555 -44.3195C290.556 -52.9828 299.8 -58.3195 309.803 -58.3195L394.833 -58.3195Z" fill="#1A1A1A"/>
<path d="M116.833 657.68C126.836 657.68 136.08 663.017 141.081 671.68L183.596 745.318C188.598 753.981 188.598 764.655 183.596 773.318L141.081 846.956C136.08 855.619 126.836 860.956 116.833 860.956L31.8033 860.956C21.7999 860.956 12.5563 855.619 7.55461 846.956L-34.96 773.318C-39.9617 764.655 -39.9618 753.981 -34.96 745.318L7.55461 671.68C12.5563 663.017 21.7999 657.68 31.8033 657.68L116.833 657.68Z" fill="#1A1A1A"/>
</g>
<defs>
<clipPath id="clip0_9_356">
<rect width="375" height="812" fill="white"/>
</clipPath>
</defs>
</svg>
